<svg xmlns="http://www.w3.org/2000/svg" viewBox="0 0 1200 720" role="img" aria-labelledby="title desc">
  <title id="title">Cute electronics desk setup</title>
  <desc id="desc">A soft rounded desk setup with monitor, keyboard, laptop, gadgets, plants and warm shop lighting.</desc>
  <defs>
    <linearGradient id="wall" x1="0" x2="1" y1="0" y2="1">
      <stop offset="0" stop-color="#f9efe3"/>
      <stop offset=".44" stop-color="#e7f7ef"/>
      <stop offset="1" stop-color="#f7d6c5"/>
    </linearGradient>
    <linearGradient id="screen" x1="0" x2="1" y1="0" y2="1">
      <stop offset="0" stop-color="#27445c"/>
      <stop offset=".55" stop-color="#3d7d86"/>
      <stop offset="1" stop-color="#f28f72"/>
    </linearGradient>
    <filter id="shadow" x="-20%" y="-20%" width="140%" height="140%">
      <feDropShadow dx="0" dy="22" stdDeviation="22" flood-color="#4b342b" flood-opacity=".18"/>
    </filter>
  </defs>
  <rect width="1200" height="720" fill="url(#wall)"/>
  <circle cx="102" cy="108" r="54" fill="#f7c86d" opacity=".75"/>
  <circle cx="1090" cy="132" r="38" fill="#79c9b3" opacity=".72"/>
  <circle cx="1030" cy="560" r="72" fill="#f08a75" opacity=".22"/>
  <path d="M0 534c160-58 292-66 428-32 170 42 308 14 449-39 90-34 171-44 323 1v256H0z" fill="#fff8ed" opacity=".82"/>
  <g filter="url(#shadow)">
    <rect x="151" y="474" width="898" height="86" rx="30" fill="#d99a66"/>
    <rect x="179" y="498" width="842" height="29" rx="14" fill="#efbb80"/>
    <rect x="210" y="549" width="58" height="116" rx="18" fill="#b8754b"/>
    <rect x="934" y="549" width="58" height="116" rx="18" fill="#b8754b"/>
  </g>
  <g filter="url(#shadow)">
    <rect x="406" y="145" width="386" height="266" rx="34" fill="#263746"/>
    <rect x="430" y="169" width="338" height="204" rx="20" fill="url(#screen)"/>
    <rect x="553" y="411" width="96" height="45" rx="12" fill="#263746"/>
    <rect x="508" y="447" width="188" height="30" rx="15" fill="#3f5665"/>
    <path d="M476 311c47-58 94-58 141 0 44 53 89 55 137 4v58H476z" fill="#fff8ed" opacity=".22"/>
    <circle cx="491" cy="216" r="13" fill="#ffe6a8"/>
    <rect x="520" y="213" width="106" height="17" rx="8" fill="#ffe6a8" opacity=".8"/>
  </g>
  <g filter="url(#shadow)">
    <rect x="224" y="374" width="226" height="132" rx="22" fill="#31495a"/>
    <rect x="242" y="391" width="190" height="84" rx="14" fill="#a9e5d4"/>
    <rect x="268" y="413" width="80" height="10" rx="5" fill="#31495a" opacity=".65"/>
    <rect x="268" y="434" width="135" height="10" rx="5" fill="#31495a" opacity=".42"/>
    <rect x="214" y="500" width="246" height="28" rx="14" fill="#253946"/>
  </g>
  <g filter="url(#shadow)">
    <rect x="737" y="366" width="172" height="216" rx="28" fill="#f7f0e3"/>
    <rect x="755" y="387" width="136" height="108" rx="18" fill="#263746"/>
    <circle cx="823" cy="531" r="25" fill="#f28f72"/>
    <rect x="786" y="419" width="74" height="11" rx="5.5" fill="#79c9b3"/>
    <rect x="786" y="444" width="52" height="11" rx="5.5" fill="#f7c86d"/>
  </g>
  <g filter="url(#shadow)">
    <rect x="466" y="505" width="268" height="62" rx="22" fill="#f7f0e3"/>
    <g fill="#3f5665">
      <rect x="490" y="523" width="26" height="14" rx="6"/>
      <rect x="528" y="523" width="26" height="14" rx="6"/>
      <rect x="566" y="523" width="26" height="14" rx="6"/>
      <rect x="604" y="523" width="26" height="14" rx="6"/>
      <rect x="642" y="523" width="26" height="14" rx="6"/>
      <rect x="680" y="523" width="26" height="14" rx="6"/>
      <rect x="516" y="546" width="170" height="12" rx="6"/>
    </g>
  </g>
  <g filter="url(#shadow)">
    <rect x="833" y="248" width="86" height="112" rx="28" fill="#f08a75"/>
    <rect x="853" y="267" width="46" height="65" rx="14" fill="#fff8ed"/>
    <circle cx="876" cy="344" r="8" fill="#fff8ed"/>
    <rect x="905" y="196" width="52" height="145" rx="20" fill="#79c9b3"/>
    <rect x="922" y="216" width="18" height="93" rx="9" fill="#fff8ed" opacity=".75"/>
  </g>
  <g filter="url(#shadow)">
    <path d="M319 318c10-59 49-92 91-81 48 13 61 60 41 116-22 60-70 85-107 61-28-18-52-55-25-96z" fill="#79c9b3"/>
    <path d="M369 256c-16 42-13 76 9 103 22-38 47-59 75-63-11-31-36-49-84-40z" fill="#3f8e7d" opacity=".45"/>
    <rect x="375" y="380" width="50" height="72" rx="17" fill="#c27b51"/>
  </g>
  <g fill="none" stroke="#263746" stroke-width="7" stroke-linecap="round" opacity=".55">
    <path d="M198 171c20-24 44-24 64 0"/>
    <path d="M186 206c30-35 68-35 98 0"/>
    <path d="M177 243c39-47 84-47 123 0"/>
  </g>
  <g fill="#263746" opacity=".28">
    <circle cx="1018" cy="228" r="8"/>
    <circle cx="1047" cy="255" r="6"/>
    <circle cx="980" cy="286" r="7"/>
    <circle cx="151" cy="335" r="6"/>
    <circle cx="113" cy="390" r="9"/>
  </g>
</svg>
